# xmcd
#
# Track frame offsets:
#	150
#	23695
#	40582
#	67782
#	88975
#	111415
#	133082
#	149334
#	165706
#	184250
#
# Disc length: 2756 seconds
#
# Revision: 0
# Processed by: cddbd v1.4PL0 Copyright (c) Steve Scherf et al.
# Submitted via: dBpowerAMP V4.0
#
DISCID=880ac20a
DTITLE=LA Keisha - Stop Drop and Roll 
DYEAR=2003
DGENRE=R&B/Blues
TTITLE0=Baby Don't Go
TTITLE1=Stop, Drop and Roll
TTITLE2=Just Another Love Song (Featuring Sir Charles Jones)
TTITLE3=Already Gone
TTITLE4=Morning Rain (Featuring Andre Lee)
TTITLE5=I'm Calling Jodi
TTITLE6=Red Handed
TTITLE7=Same Thing
TTITLE8=Choosy
TTITLE9=Stop Drop and Roll - Remix
EXTD=\nAll songs written by La Keisha Burks and published by Warren Hildebrand Music,\nBMI/Senator Jones Music, BMI. Produced by Senator Jones at Hep Me Records\nrecording studio,3947 Cox Ferry Rd., Bolton MS 39041\n___________________________________
EXTD=_______________\n\nCP 2003 MARDI GRAS RECORDS, INC \n1013-A Hrimaw Court West  Metairie, LA 70001\nwww.mardigrasrecords.com\nALL RIGHTS RESERVED.	
EXTT0=
EXTT1=
EXTT2=
EXTT3=
EXTT4=
EXTT5=
EXTT6=
EXTT7=
EXTT8=
EXTT9=
PLAYORDER=
